<?xml version="1.0" standalone="no"?>
<!DOCTYPE svg PUBLIC "-//W3C//DTD SVG 20010904//EN"
 "http://www.w3.org/TR/2001/REC-SVG-20010904/DTD/svg10.dtd">
<svg version="1.0" xmlns="http://www.w3.org/2000/svg"
 width="1280.000000pt" height="1324.000000pt" viewBox="0 0 1280.000000 1324.000000"
 preserveAspectRatio="xMidYMid meet">

<g transform="translate(0.000000,1324.000000) scale(0.100000,-0.100000)"
fill="#FFFFFF" stroke="none">
<path d="M6085 11229 c-1229 -126 -2187 -1067 -2330 -2288 -8 -69 -15 -163
-15 -208 l0 -82 91 -96 91 -95 2402 0 2401 0 99 99 98 98 -7 109 c-30 506
-169 924 -438 1327 -407 609 -1043 1008 -1787 1122 -125 19 -477 28 -605 14z
m522 -354 c258 -34 464 -95 690 -205 246 -119 441 -258 630 -451 125 -127 185
-201 278 -344 201 -306 315 -631 358 -1022 l5 -43 -2239 0 c-1231 0 -2239 3
-2239 8 0 37 25 206 40 282 122 584 465 1090 964 1421 291 193 624 314 981
358 120 15 405 12 532 -4z"/>
<path d="M2284 9271 c-430 -117 -622 -628 -373 -998 17 -26 326 -343 685 -703
l654 -656 0 -472 c0 -493 -1 -499 -44 -534 -19 -16 -67 -18 -611 -18 -324 0
-628 -4 -675 -9 -267 -28 -477 -192 -568 -443 -23 -65 -27 -88 -27 -203 0
-107 4 -142 22 -200 66 -207 235 -371 447 -432 78 -23 81 -23 745 -23 432 0
679 -4 704 -11 47 -13 64 -39 89 -136 35 -142 79 -276 134 -411 31 -77 54
-149 54 -170 0 -35 -25 -62 -554 -592 -436 -437 -561 -568 -590 -618 -212
-369 -36 -829 369 -958 155 -50 315 -33 495 52 l95 45 517 517 517 516 33 -24
c468 -346 883 -523 1454 -619 l164 -28 2 1423 3 1424 33 32 32 33 244 0 c230
0 245 -1 266 -20 52 -46 50 18 50 -1488 l0 -1404 188 32 c215 37 347 70 517
127 304 102 625 271 873 459 l66 50 505 -504 c301 -300 530 -520 566 -544 153
-102 234 -127 394 -121 187 8 316 63 441 189 76 77 121 149 158 251 24 65 26
87 26 208 0 121 -2 143 -26 208 -52 145 -62 156 -650 747 -428 430 -559 567
-564 591 -4 23 5 56 39 135 59 140 102 267 142 422 19 71 42 138 51 148 9 10
33 23 53 29 22 6 289 10 701 10 745 0 719 -2 870 72 123 60 222 161 283 289
52 108 68 174 69 286 0 111 -16 183 -68 290 -98 203 -294 338 -527 363 -51 5
-359 10 -685 10 l-594 0 -29 29 -29 29 0 477 c0 392 3 481 14 503 8 15 305
317 661 672 690 688 692 690 742 839 100 300 -44 644 -331 785 -145 71 -325
87 -472 41 -161 -50 -192 -76 -629 -514 -220 -221 -414 -408 -431 -416 -28
-13 -339 -15 -2637 -15 -1803 0 -2614 3 -2634 11 -15 5 -210 191 -433 413
-436 434 -465 458 -622 513 -100 36 -261 42 -364 14z m294 -351 c36 -16 143
-117 472 -443 447 -445 462 -458 581 -487 31 -7 812 -10 2729 -8 l2685 3 75
34 c72 33 93 53 505 462 477 473 466 465 595 463 89 -1 157 -32 219 -100 64
-70 85 -131 79 -228 -3 -43 -13 -86 -24 -109 -12 -22 -300 -319 -680 -700
-696 -698 -696 -698 -729 -822 -22 -86 -22 -1012 0 -1098 41 -158 149 -273
310 -331 20 -7 259 -12 700 -16 l670 -5 67 -33 c115 -56 173 -148 172 -272 0
-125 -61 -222 -172 -277 l-57 -28 -716 -5 -716 -5 -85 -43 c-95 -47 -161 -110
-204 -194 -13 -27 -40 -108 -59 -181 -48 -180 -69 -241 -134 -392 l-56 -130 0
-121 c0 -119 0 -121 39 -200 37 -77 55 -95 595 -636 618 -619 603 -600 603
-728 0 -169 -134 -304 -302 -305 -132 0 -106 -22 -715 586 -595 593 -586 586
-705 596 -89 8 -150 -16 -276 -110 -292 -217 -595 -370 -916 -462 -66 -19
-124 -35 -129 -35 -5 0 -9 488 -9 1229 0 1176 -1 1232 -19 1290 -10 33 -30 80
-44 103 -38 65 -128 145 -204 181 l-68 32 -320 0 -320 0 -68 -32 c-76 -36
-166 -116 -204 -181 -14 -23 -34 -70 -44 -103 -18 -58 -19 -114 -19 -1291 l0
-1230 -32 7 c-76 17 -271 80 -373 121 -233 95 -456 225 -670 388 -56 42 -121
83 -148 92 -60 20 -156 15 -212 -11 -27 -12 -219 -196 -590 -565 -524 -521
-553 -549 -610 -570 -147 -54 -308 11 -383 155 -20 40 -26 65 -26 125 -2 143
-30 108 594 735 331 332 568 578 583 605 40 70 60 162 54 250 -4 62 -16 104
-70 240 -37 91 -82 224 -102 295 -20 72 -42 153 -50 181 -41 141 -178 269
-325 303 -28 7 -291 11 -709 11 -577 0 -672 2 -721 16 -178 50 -274 250 -198
416 31 68 87 123 158 157 l55 26 670 5 c441 4 680 9 700 16 159 57 269 175
310 329 22 87 22 999 0 1094 -31 128 -27 124 -729 828 -506 507 -666 674 -684
710 -20 41 -22 60 -19 133 4 97 23 142 84 203 93 94 223 119 341 67z"/>
</g>
</svg>
